<svg xmlns="http://www.w3.org/2000/svg" width="290" height="58" viewBox="0 0 290 58"><path fill="#F9A31A" d="M50.2 25.1c0-13.9-11.3-25.1-25.1-25.1-13.9 0-25.1 11.2-25.1 25.1 0 11.7 8 21.5 18.8 24.3l6.3 8.2 6.3-8.2c10.8-2.8 18.8-12.6 18.8-24.3z"/><path d="M13 18c-1.1-.6-1.1-1.5 0-2l10.5-5.3c1.1-.6 2.9-.6 4 0l10.5 5.3c1.1.6 1.1 1.5 0 2l-10.5 5.3c-1.1.6-2.9.6-4 0l-10.5-5.3zm13.1 10.3c0-1.2.9-2.7 2-3.3l10.9-5.4c1.1-.6 2 0 2 1.3v10.5c0 1.2-.9 2.7-2 3.3l-10.9 5.3c-1.1.6-2 0-2-1.3v-10.4zm-14.9 6.3c-1.1-.6-2-2-2-3.3v-10.4c0-1.2.9-1.8 2-1.3l10.8 5.4c1.1.6 2 2 2 3.3v10.5c0 1.2-.9 1.8-2 1.3l-10.8-5.5z" fill="#fff"/><path d="M83.8 43.6h-.1c-2.1 2.8-5.9 4.6-10.1 4.6-10.1 0-16-8.3-16-16.3 0-7.6 6.3-16.2 16.3-16.2 4.6 0 8.1 2 9.8 4.6h.1v-3.8h6.6v30.8h-6.6v-3.7zm-9.4-1.7c5.2 0 9.7-4.5 9.7-10s-4.5-10-9.7-10c-5.4 0-9.8 4.5-9.8 10s4.4 10 9.8 10zm23.4-19.2h-4.3v-6.2h4.3v-5.2c0-5.7 3.5-11.2 11.5-11.2 1.6 0 3.7.3 5.1.8l-2.7 6c-.9-.4-1.7-.6-2.9-.6-2.7 0-4.3 2.2-4.3 4.5v5.6h6.6v6.2h-6.6v24.6h-6.6v-24.5zm20.6 0h-3.8v-6.2h3.8v-9.2h6.6v9.2h4.7v6.2h-4.7v24.6h-6.6v-24.6zm43.2 17.9c-3.7 4.7-8.8 7.5-14.3 7.5-10.8 0-17-8.1-17-16.3 0-8.2 6.2-16.2 17-16.2 6.4 0 16 5.3 16 17.3v1.2h-25.6c.4 4.7 4.8 8.1 9.4 8.1 3.6 0 6.6-1.7 8.9-4.8l5.6 3.2zm-6.2-11.9c-1.4-4.7-4.9-7.2-9.1-7.2-4.2 0-7.6 2.6-8.7 7.2h17.8zm10.5-12.2h6.2v3.4h.1c1.1-2.5 3.4-4.2 6.1-4.2 1.5 0 2.7.4 3.6 1l-2.4 6.6c-.6-.5-1.8-.9-2.5-.9-2.4 0-4.6 1.8-4.6 4.7v20.4h-6.6v-31zm19.7 21.6c2.4 2.5 6.2 4.5 9.7 4.5 3.8 0 6.1-2.2 6.1-3.9 0-2-1.6-3.1-4-3.6l-3.8-.7c-8.7-1.6-11.1-4.4-11.1-8.8 0-5.2 4.4-10.1 12.1-10.1 4.3 0 8 1.3 12.2 4.3l-3.8 4.7c-3.2-2.7-6.1-3.4-8.3-3.4-2.9 0-5.7 1.4-5.7 3.9 0 1.8 1.5 2.8 4 3.2l6.7 1.3c5.5 1 8.2 3.6 8.2 8.2 0 4.5-3.7 10.4-13.1 10.4-5.2 0-9.7-1.8-13.9-5.4l4.7-4.6zm56.7-21.6h6.6v30.8h-6.6v-30.8zm-32.1-9.2h6.6v13.1h.1c1.8-2.9 5.2-4.7 9.4-4.7 6.5 0 12 5.4 12 13.1v18.6h-6.6v-17.2c0-5.6-2.9-7.9-7.3-7.9-4.3 0-7.6 2.7-7.6 7.8v17.3h-6.6v-40.1zm50 12.9h.1c2.4-2.9 5.9-4.6 10.1-4.6 10.1 0 16 8.3 16 16.3 0 7.6-6.3 16.2-16.3 16.2-4.6 0-8.1-2-9.8-4.6h-.1v14.5h-6.6v-41.5h6.6v3.7zm9.4 1.7c-5.2 0-9.7 4.5-9.7 10s4.5 10 9.7 10c5.4 0 9.8-4.5 9.8-10s-4.4-10-9.8-10zm-23.9-15c2 0 3.7 1.7 3.7 3.7s-1.7 3.7-3.7 3.7-3.7-1.7-3.7-3.7c0-2.1 1.6-3.7 3.7-3.7z" fill="#343433"/></svg>